<svg xmlns="http://www.w3.org/2000/svg" width="186.48" height="35" viewBox="0 0 186.48 35"><rect class="svg__rect" x="0" y="0" width="91.76" height="35" fill="#583D72"/><rect class="svg__rect" x="89.76" y="0" width="96.71999999999998" height="35" fill="#9F5F80"/><path class="svg__text" d="M19.57 22L14.22 22L14.22 13.47L15.70 13.47L15.70 20.82L19.57 20.82L19.57 22ZM25.26 22L23.79 22L23.79 13.47L25.26 13.47L25.26 22ZM29.80 18.19L29.80 18.19L29.80 17.39Q29.80 16.19 30.23 15.27Q30.66 14.35 31.46 13.85Q32.26 13.35 33.31 13.35L33.31 13.35Q34.72 13.35 35.58 14.12Q36.44 14.89 36.58 16.29L36.58 16.29L35.11 16.29Q35.00 15.37 34.57 14.96Q34.14 14.55 33.31 14.55L33.31 14.55Q32.34 14.55 31.82 15.26Q31.30 15.96 31.29 17.33L31.29 17.33L31.29 18.09Q31.29 19.47 31.79 20.20Q32.28 20.92 33.24 20.92L33.24 20.92Q34.11 20.92 34.55 20.53Q34.99 20.14 35.11 19.22L35.11 19.22L36.58 19.22Q36.45 20.59 35.57 21.35Q34.70 22.12 33.24 22.12L33.24 22.12Q32.22 22.12 31.44 21.63Q30.66 21.15 30.24 20.26Q29.82 19.37 29.80 18.19ZM46.47 22L40.89 22L40.89 13.47L46.43 13.47L46.43 14.66L42.38 14.66L42.38 17.02L45.88 17.02L45.88 18.19L42.38 18.19L42.38 20.82L46.47 20.82L46.47 22ZM52.15 22L50.67 22L50.67 13.47L52.15 13.47L55.97 19.54L55.97 13.47L57.44 13.47L57.44 22L55.95 22L52.15 15.95L52.15 22ZM61.74 19.42L61.74 19.42L63.23 19.42Q63.23 20.15 63.71 20.55Q64.19 20.95 65.08 20.95L65.08 20.95Q65.86 20.95 66.25 20.63Q66.64 20.32 66.64 19.80L66.64 19.80Q66.64 19.24 66.24 18.94Q65.84 18.63 64.81 18.32Q63.78 18.01 63.17 17.63L63.17 17.63Q62.01 16.90 62.01 15.72L62.01 15.72Q62.01 14.69 62.85 14.02Q63.69 13.35 65.03 13.35L65.03 13.35Q65.92 13.35 66.62 13.68Q67.31 14.01 67.71 14.61Q68.11 15.22 68.11 15.96L68.11 15.96L66.64 15.96Q66.64 15.29 66.22 14.91Q65.80 14.54 65.02 14.54L65.02 14.54Q64.29 14.54 63.89 14.85Q63.49 15.16 63.49 15.71L63.49 15.71Q63.49 16.18 63.92 16.50Q64.36 16.81 65.35 17.10Q66.35 17.40 66.95 17.78Q67.56 18.16 67.84 18.65Q68.12 19.13 68.12 19.79L68.12 19.79Q68.12 20.86 67.30 21.49Q66.48 22.12 65.08 22.12L65.08 22.12Q64.16 22.12 63.38 21.77Q62.60 21.43 62.17 20.83Q61.74 20.22 61.74 19.42ZM77.98 22L72.41 22L72.41 13.47L77.94 13.47L77.94 14.66L73.89 14.66L73.89 17.02L77.39 17.02L77.39 18.19L73.89 18.19L73.89 20.82L77.98 20.82L77.98 22Z" fill="#FFFFFF"/><path class="svg__text" d="M106.15 22L103.95 22L103.95 13.60L105.90 13.60L108.86 18.45L111.74 13.60L113.69 13.60L113.72 22L111.54 22L111.51 17.55L109.35 21.17L108.30 21.17L106.15 17.67L106.15 22ZM121.26 22L118.88 22L118.88 13.60L122.72 13.60Q123.86 13.60 124.70 13.98Q125.54 14.35 126.00 15.06Q126.45 15.76 126.45 16.71L126.45 16.71Q126.45 17.66 126.00 18.35Q125.54 19.05 124.70 19.42Q123.86 19.80 122.72 19.80L122.72 19.80L121.26 19.80L121.26 22ZM121.26 15.47L121.26 17.93L122.57 17.93Q123.31 17.93 123.68 17.61Q124.05 17.29 124.05 16.71L124.05 16.71Q124.05 16.12 123.68 15.80Q123.31 15.47 122.57 15.47L122.57 15.47L121.26 15.47ZM137.59 22L131.21 22L131.21 13.60L133.58 13.60L133.58 20.11L137.59 20.11L137.59 22ZM145.25 19.46L141.75 19.46L141.75 17.71L145.25 17.71L145.25 19.46ZM151.00 16.17L149.24 15.19Q149.73 14.37 150.62 13.90Q151.51 13.43 152.72 13.43L152.72 13.43Q153.68 13.43 154.42 13.74Q155.15 14.05 155.57 14.64Q155.98 15.22 155.98 15.99L155.98 15.99Q155.98 16.67 155.69 17.28Q155.39 17.89 154.56 18.65L154.56 18.65L152.97 20.11L156.21 20.11L156.21 22L149.67 22L149.67 20.51L152.82 17.57Q153.27 17.14 153.43 16.83Q153.58 16.53 153.58 16.22L153.58 16.22Q153.58 15.81 153.31 15.58Q153.03 15.35 152.50 15.35L152.50 15.35Q152.04 15.35 151.65 15.56Q151.26 15.77 151.00 16.17L151.00 16.17ZM160.30 20.75L160.30 20.75Q160.30 20.15 160.69 19.78Q161.08 19.41 161.67 19.41L161.67 19.41Q162.27 19.41 162.66 19.78Q163.04 20.15 163.04 20.75L163.04 20.75Q163.04 21.34 162.65 21.72Q162.26 22.11 161.67 22.11L161.67 22.11Q161.09 22.11 160.70 21.72Q160.30 21.34 160.30 20.75ZM167.27 17.80L167.27 17.80Q167.27 16.45 167.74 15.46Q168.21 14.46 169.05 13.95Q169.90 13.43 170.97 13.43L170.97 13.43Q172.04 13.43 172.88 13.95Q173.72 14.46 174.20 15.46Q174.67 16.45 174.67 17.80L174.67 17.80Q174.67 19.15 174.20 20.15Q173.72 21.14 172.88 21.65Q172.05 22.17 170.97 22.17L170.97 22.17Q169.90 22.17 169.05 21.65Q168.21 21.14 167.74 20.15Q167.27 19.16 167.27 17.80ZM169.65 17.80L169.65 17.80Q169.65 19.06 170.01 19.64Q170.36 20.22 170.97 20.22L170.97 20.22Q171.58 20.22 171.93 19.64Q172.29 19.06 172.29 17.80L172.29 17.80Q172.29 16.54 171.93 15.96Q171.58 15.38 170.97 15.38L170.97 15.38Q170.36 15.38 170.01 15.96Q169.65 16.54 169.65 17.80Z" fill="#FFFFFF" x="102.76"/></svg>